<svg version="1" xmlns="http://www.w3.org/2000/svg" width="1365.333" height="1365.333" viewBox="0 0 1024.000000 1024.000000"><path d="M116.2 199.2c-11.1 1.2-16.3 5.2-47.3 35.9-12.6 12.6-15.1 17.4-15.2 29.9-.1 6.5.3 8.5 3 14 3.4 7-9.6-6.2 168.5 173l59.6 60-81.1 81.6C54.8 743.2 60 737.8 56.8 744.6c-4.5 9.6-4.3 21.9.6 31.3 1.8 3.4 10.5 12.4 30.8 31.8 15.3 14.6 20.8 17.6 32.7 17.5 7.4 0 15.1-2.3 19.6-5.7 1.7-1.2 66.9-66.2 145.1-144.4 120.5-120.6 142.5-143 145-147.9 2.6-5.2 2.9-6.6 2.9-15.7-.1-8.5-.4-10.7-2.4-14.4-1.3-2.5-2.8-5-3.5-5.7-.6-.7-65.2-65.4-143.5-143.9-114.7-114.7-143.5-143-147.5-145-6.7-3.2-12.7-4.2-20.4-3.3zM493.7 720.1c-12.3 2.9-22.4 13-25.2 25.3-1.7 7.3-1.3 57.4.5 64.1 2.4 9 8.7 16.2 19 21.6l4.5 2.4h456l5.3-2.8c7.7-4 14.5-11.3 17.3-18.4 2.1-5.5 2.2-7.1 2.3-35.3 0-25.4-.2-30.2-1.7-34.5-3.6-10.3-11.4-18-22.2-21.7-4.7-1.6-19.6-1.7-228.5-1.7-125.4.1-225.1.5-227.3 1z"/></svg>